<svg width="36" height="36" viewBox="0 0 36 36" fill="none" xmlns="http://www.w3.org/2000/svg">
<g clip-path="url(#clip0_49_50)">
<path d="M14.3682 14.6758C13.2149 16.7571 12.8783 19.4767 14.3849 21.4781C15.1122 22.4443 16.1581 23.04 17.3362 23.2325C18.6388 23.4457 19.9964 23.2781 21.2837 23.0292C21.8749 22.9148 22.4622 22.715 22.9467 22.3423C23.4131 21.9833 23.7935 21.52 24.0602 20.9895C24.3488 20.4141 24.5191 19.7912 24.6051 19.1532C24.6997 18.4551 24.7256 17.7678 24.6279 17.0683C24.5408 16.4433 24.4416 15.7629 24.1458 15.2002C23.8792 14.6928 23.4224 14.248 23.0228 13.8463C22.2659 13.0856 21.2969 12.2861 20.2193 12.0954C19.2406 11.9221 18.1862 12.0433 17.2424 12.3462C16.3266 12.6401 15.4859 13.2499 14.8602 13.9863C14.6778 14.2013 14.5086 14.4304 14.3682 14.6758C14.2235 14.9291 14.3106 15.2704 14.5594 15.4184C14.8086 15.5668 15.1439 15.4777 15.2889 15.2237C15.5136 14.8299 15.7902 14.5267 16.1659 14.1988C16.2075 14.1626 16.2495 14.1271 16.2918 14.092C16.3195 14.0692 16.3476 14.0461 16.376 14.0236C16.3668 14.0309 16.3252 14.0627 16.3739 14.0265C16.4635 13.9596 16.5538 13.8941 16.6466 13.8318C16.8097 13.7225 16.979 13.6208 17.1549 13.5343C17.1695 13.5271 17.3046 13.4652 17.225 13.5003C17.1492 13.5336 17.2605 13.4869 17.2793 13.4793C17.3672 13.4453 17.4564 13.4145 17.546 13.3863C17.7365 13.3259 17.9303 13.2763 18.1254 13.2347C18.2232 13.2137 18.321 13.1952 18.4194 13.1786C18.4699 13.1699 18.52 13.1623 18.5705 13.1547C18.658 13.1413 18.4937 13.1637 18.5819 13.1532C18.6164 13.1493 18.6505 13.1449 18.685 13.1413C18.9086 13.1167 19.1336 13.1029 19.3587 13.1033C19.4603 13.1037 19.562 13.1066 19.6637 13.1131C19.7216 13.1167 19.7796 13.1225 19.8372 13.1279C19.8443 13.1286 19.9253 13.138 19.8635 13.1301C19.8023 13.1221 19.9015 13.1362 19.9122 13.138C20.0046 13.1536 20.096 13.1731 20.1866 13.1974C20.2375 13.2111 20.2876 13.2263 20.3374 13.2434C20.3583 13.2506 20.379 13.2582 20.3996 13.2658C20.4077 13.2687 20.4892 13.3027 20.4433 13.2828C20.3903 13.2596 20.4785 13.3002 20.4799 13.3005C20.5066 13.3136 20.5332 13.3259 20.5595 13.3389C20.621 13.3693 20.6822 13.4008 20.7426 13.4334C20.8546 13.4942 20.9648 13.5589 21.0725 13.6273C21.1802 13.6957 21.2862 13.7677 21.3896 13.8427C21.5062 13.9273 21.5279 13.9436 21.6324 14.0301C22.0306 14.3591 22.395 14.7286 22.7391 15.1147C22.9222 15.3203 23.0712 15.4756 23.1949 15.6923C23.3125 15.8986 23.3712 16.136 23.427 16.3995C23.5475 16.9695 23.6396 17.4863 23.63 18.0671C23.6204 18.6458 23.5621 19.1485 23.4117 19.7037C23.3424 19.9595 23.2596 20.1984 23.1522 20.4162C23.0978 20.5263 23.0384 20.6337 22.9741 20.738C22.9442 20.7861 22.9137 20.8335 22.8817 20.8802C22.8678 20.9005 22.7782 21.0206 22.8145 20.975C22.7388 21.0706 22.6577 21.1618 22.572 21.2479C22.5326 21.2877 22.492 21.3261 22.4504 21.3637C22.4323 21.38 22.3168 21.4752 22.3648 21.4386C22.1724 21.5855 21.9499 21.7079 21.7586 21.7788C21.2393 21.9713 20.6744 22.0444 20.1347 22.1183C19.5542 22.1979 18.9538 22.2558 18.3618 22.2438C17.8197 22.2326 17.3785 22.174 16.8474 21.997C16.6043 21.916 16.4333 21.8403 16.1965 21.7013C15.9615 21.5631 15.8549 21.4835 15.6803 21.3224C15.5939 21.2425 15.5107 21.1589 15.4318 21.0713C15.3952 21.0307 15.3596 20.9895 15.3248 20.9479C15.3074 20.9269 15.2903 20.9055 15.2733 20.8845C15.216 20.814 15.3113 20.9374 15.2569 20.8643C15.1154 20.6735 14.9913 20.4691 14.8829 20.2574C14.8538 20.2002 14.8253 20.1423 14.7987 20.0836C14.7901 20.0652 14.7368 19.9425 14.7649 20.0102C14.719 19.8994 14.6792 19.7858 14.6426 19.6714C14.5665 19.4333 14.5111 19.1901 14.4698 18.9433C14.4535 18.8449 14.4698 18.9672 14.4592 18.868C14.4531 18.8101 14.4474 18.7522 14.4428 18.6939C14.4314 18.5448 14.4265 18.3954 14.4275 18.2463C14.4282 18.1185 14.4336 17.9908 14.4432 17.863C14.4545 17.7078 14.4627 17.63 14.4837 17.4993C14.5665 16.9822 14.7286 16.4158 14.9199 15.971C15.0297 15.7151 15.1545 15.4665 15.2893 15.2237C15.4307 14.9682 15.349 14.6305 15.098 14.4811C14.8513 14.3345 14.51 14.4195 14.3682 14.6758Z" fill="black"/>
<path d="M16.0009 9.61443C15.4376 9.89559 14.9236 10.2869 14.3931 10.6308C14.0787 10.8345 13.7593 11.0217 13.4681 11.264C13.1431 11.5345 12.8803 11.8678 12.6717 12.2488C12.4656 12.6261 12.3137 13.0365 12.1621 13.4417C11.9993 13.8759 11.846 14.3146 11.718 14.7624C11.4791 15.5978 11.3425 16.4681 11.3214 17.342C11.2794 19.0514 11.6767 20.789 12.469 22.2734C12.8318 22.9532 13.2933 23.5948 13.8692 24.0804C14.5266 24.6347 15.2813 24.9379 16.0995 25.0946C17.781 25.4172 19.574 25.5619 21.2374 25.0557C22.0259 24.8156 22.8045 24.4688 23.5514 24.1076C24.261 23.764 24.9468 23.3111 25.4438 22.6552C26.4402 21.3404 26.7784 19.5679 26.7447 17.9036C26.7092 16.155 26.2402 14.3579 25.3308 12.8985C24.8806 12.1757 24.3126 11.5536 23.6848 11.0085C23.0622 10.4682 22.3942 9.98846 21.6644 9.63205C20.923 9.26976 20.1448 9.01246 19.3293 8.94712C18.5435 8.88399 17.7318 8.99998 16.9751 9.22902C16.6412 9.32996 16.3173 9.46137 16.0009 9.61443C15.7486 9.73666 15.6882 10.1305 15.8172 10.3676C15.9691 10.6466 16.2647 10.6877 16.5177 10.5651C16.5149 10.5666 16.647 10.5042 16.5794 10.535C16.5098 10.5669 16.6521 10.5038 16.647 10.506C16.7071 10.4807 16.7679 10.4565 16.8286 10.433C16.9918 10.3706 17.1577 10.3155 17.3249 10.2671C17.4864 10.2204 17.6492 10.1801 17.8134 10.1456C17.9875 10.1092 18.1186 10.0872 18.2527 10.0714C19.0105 9.98332 19.6638 10.0428 20.3769 10.2744C21.6969 10.7035 22.9284 11.6013 23.8842 12.6992C24.8707 13.8326 25.4278 15.3394 25.6469 16.892C25.7438 17.5788 25.7459 18.4395 25.6612 19.1898C25.6291 19.4754 25.5496 19.8975 25.4615 20.2322C25.4189 20.3941 25.3707 20.5545 25.3165 20.7123C25.252 20.8999 25.2301 20.9553 25.139 21.1499C24.985 21.4795 24.8051 21.7775 24.6133 22.0088C24.3808 22.2892 24.1743 22.4727 23.8985 22.6629C23.2708 23.0953 22.6523 23.336 21.9703 23.6201C21.2514 23.9197 20.4953 24.163 19.7553 24.2379C18.9583 24.3183 18.1544 24.2797 17.3601 24.1843C16.6822 24.1028 15.8814 23.9938 15.2557 23.7097C15.1035 23.6407 14.9567 23.5541 14.8167 23.4605C14.6604 23.3562 14.5751 23.2891 14.4686 23.1933C14.216 22.9649 13.9859 22.7051 13.7835 22.4246C13.8231 22.4797 13.7692 22.4034 13.7654 22.3978C13.7391 22.3586 13.7121 22.3197 13.6862 22.28C13.6394 22.2088 13.594 22.1365 13.5497 22.0635C13.4565 21.9097 13.3691 21.7515 13.2868 21.5907C13.1168 21.2585 12.9738 20.9271 12.8619 20.6088C12.7301 20.2337 12.6222 19.8486 12.5386 19.4577C12.458 19.0815 12.4089 18.76 12.3789 18.4168C12.344 18.0174 12.3338 17.6155 12.3488 17.2147C12.356 17.0249 12.3686 16.8351 12.387 16.6465C12.4045 16.4677 12.4174 16.3697 12.4512 16.166C12.5925 15.3163 12.8612 14.4996 13.1616 13.7016C13.2728 13.4057 13.4039 13.0717 13.5845 12.7527C13.7456 12.4679 13.9466 12.2301 14.2061 12.0392C14.4679 11.8465 14.7495 11.6872 15.0202 11.5092C15.2868 11.3337 15.5503 11.1535 15.8179 10.9799C16.0459 10.8319 16.276 10.6855 16.5177 10.5647C16.7685 10.4396 16.8317 10.0509 16.7013 9.81154C16.5511 9.53551 16.2528 9.4889 16.0009 9.61443Z" fill="black"/>
<path d="M9.77992 11.377C9.55772 11.8976 9.43777 12.4504 9.24267 12.9797C9.04323 13.5199 8.7401 14.0366 8.56885 14.5996C8.39398 15.1749 8.32136 15.78 8.27909 16.3766C8.2379 16.9579 8.22236 17.5412 8.23898 18.1235C8.30293 20.3629 8.88137 22.5973 10.3338 24.3771C11.6533 25.9938 13.6368 26.8508 15.693 27.1858C16.7425 27.3566 17.8051 27.4229 18.8684 27.4376C19.4425 27.4454 20.0217 27.4555 20.5947 27.4099C21.2223 27.3601 21.8163 27.2173 22.4081 27.0128C23.4161 26.6649 24.4386 26.2987 25.3657 25.7739C26.3293 25.2285 27.1306 24.4946 27.6968 23.5577C27.98 23.0894 28.2066 22.5913 28.4244 22.0918C28.6647 21.5411 28.8952 20.9865 29.0964 20.4211C29.4877 19.3221 29.7739 18.1758 29.8255 17.0101C29.879 15.8049 29.6182 14.654 29.1297 13.5511C28.677 12.529 28.1058 11.543 27.3756 10.6829C26.1276 9.21276 24.3967 8.18113 22.5533 7.56728C21.6114 7.25368 20.6337 7.05935 19.6448 6.95658C18.5826 6.84608 17.4471 6.81486 16.4015 7.05339C15.263 7.31332 14.2431 7.96365 13.1696 8.33337C12.2017 8.66661 11.3288 9.29099 10.6572 10.0406C10.3298 10.4057 10.0339 10.8056 9.8352 11.2515C9.71923 11.5121 9.75572 11.8159 10.0296 11.9713C10.2586 12.1014 10.6543 12.0446 10.771 11.7825C10.8584 11.5865 10.9632 11.3995 11.0831 11.2206C11.2262 11.0077 11.2977 10.9196 11.4806 10.7218C11.6421 10.5468 11.8148 10.3812 11.9961 10.2258C12.1985 10.0522 12.2985 9.9757 12.5211 9.82943C12.7086 9.70595 12.9034 9.593 13.1057 9.49408C13.1516 9.47163 13.1982 9.44989 13.2451 9.42884C13.2683 9.41867 13.291 9.40849 13.3145 9.39867C13.3058 9.40253 13.2419 9.42709 13.2997 9.40534C13.424 9.35833 13.5508 9.31799 13.6755 9.27239C14.2127 9.07666 14.7301 8.83463 15.25 8.60066C15.7385 8.38072 16.2129 8.16921 16.7545 8.05415C17.239 7.95138 17.7621 7.93489 18.2864 7.93629C18.7492 7.93769 19.2116 7.96295 19.6719 8.01171C19.7261 8.01732 19.7803 8.02364 19.8345 8.02995C19.8591 8.03276 19.9913 8.04994 19.9071 8.03872C20.0242 8.0545 20.1413 8.07204 20.258 8.09098C20.4914 8.12887 20.7237 8.17271 20.9546 8.22323C21.4065 8.32179 21.8531 8.44386 22.2906 8.59084C22.5045 8.6624 22.7155 8.74097 22.9251 8.82375C22.9829 8.84655 22.9316 8.82586 22.9204 8.8213C22.9453 8.83147 22.9702 8.84199 22.9948 8.85252C23.0443 8.87356 23.0938 8.89461 23.1433 8.91601C23.2582 8.96617 23.3724 9.01843 23.4855 9.07245C23.8876 9.26433 24.2774 9.4797 24.6514 9.71928C24.823 9.82943 25.0625 9.99464 25.1843 10.0851C25.2992 10.1707 25.5163 10.3461 25.6637 10.4741C26.421 11.1312 26.9359 11.7717 27.4305 12.61C27.9833 13.5469 28.4559 14.4996 28.6557 15.5688C28.8396 16.5513 28.7402 17.6261 28.5082 18.6125C28.2618 19.6606 27.8619 20.7112 27.4381 21.6755C27.0258 22.6134 26.5749 23.5051 25.8046 24.1814C25.4726 24.4729 25.1023 24.7142 24.6669 24.9496C24.4545 25.0643 24.237 25.1706 24.0166 25.2702C23.9103 25.3183 23.803 25.3649 23.6954 25.4105C23.6076 25.4477 23.527 25.4803 23.3908 25.5336C22.4124 25.9163 21.3953 26.3218 20.353 26.3734C19.3269 26.4246 18.2817 26.3958 17.2574 26.3183C17.0139 26.2997 16.7711 26.2769 16.5286 26.2489C16.3823 26.232 16.3917 26.2334 16.2389 26.2113C16.1142 26.1934 15.9899 26.1738 15.866 26.1524C15.3848 26.07 14.9075 25.9616 14.4414 25.8188C13.9605 25.6715 13.6361 25.5452 13.2087 25.3288C12.9908 25.2186 12.7787 25.0976 12.5735 24.9664C12.4781 24.9054 12.3845 24.8422 12.2928 24.7767C12.1981 24.7093 12.1761 24.6925 12.063 24.6002C11.8711 24.4438 11.6883 24.2764 11.516 24.1C11.4365 24.0186 11.3588 23.9355 11.2837 23.8503C11.2461 23.8078 11.2089 23.7647 11.1724 23.7212C11.1565 23.7022 11.0643 23.5896 11.0958 23.6293C10.7955 23.2501 10.5376 22.8383 10.3165 22.4114C10.2124 22.2107 10.1112 21.9911 10.0498 21.8414C9.95696 21.6141 9.87386 21.3829 9.80016 21.1489C9.6336 20.62 9.51256 20.0766 9.43416 19.5287C9.28567 18.4932 9.28639 17.3521 9.36985 16.2798C9.41104 15.7509 9.48546 15.2468 9.66395 14.7248C9.84387 14.199 10.1322 13.7044 10.3201 13.1702C10.4967 12.6682 10.6156 12.1487 10.8252 11.6577C10.9339 11.4027 10.7077 11.068 10.4465 11.0105C10.1307 10.9396 9.89662 11.1038 9.77992 11.377Z" fill="black"/>
<path d="M7.44583 10.7497C6.17327 13.2792 5.07839 15.9375 5.15033 18.8002C5.21507 21.373 6.09378 23.9475 7.67998 26.0157C8.52272 27.1142 9.5417 28.1219 10.7912 28.7818C12.0634 29.4538 13.4892 29.7518 14.9053 29.9821C16.4473 30.2327 18.0054 30.4965 19.5722 30.5275C20.9886 30.5554 22.4054 30.3558 23.7251 29.8457C26.1954 28.8903 28.2319 27.1002 29.5933 24.8963C31.0335 22.565 31.7489 19.8233 31.8733 17.1211C31.9906 14.5769 31.4989 11.8681 29.8677 9.80685C28.2398 7.74983 25.7692 6.59761 23.2823 5.80935C21.8572 5.35781 20.3937 4.97572 18.8953 4.85289C17.5508 4.74297 16.1764 4.87836 14.8812 5.24545C13.6047 5.60731 12.3893 6.1897 11.3171 6.95214C10.8128 7.31051 10.346 7.71074 9.87189 8.1054C9.42121 8.48087 8.97484 8.86296 8.56516 9.28065C8.13426 9.71997 7.72602 10.204 7.44583 10.7497C7.31598 11.0027 7.37605 11.3164 7.63934 11.4657C7.87816 11.6011 8.2472 11.532 8.3774 11.278C8.65472 10.7378 8.96225 10.3868 9.38704 9.96109C9.79168 9.55492 10.2298 9.18224 10.6715 8.81481C11.0876 8.46865 11.5063 8.1054 11.9095 7.82206C12.4242 7.4602 12.9698 7.13952 13.5399 6.86665C14.0881 6.60424 14.6006 6.41232 15.224 6.23925C15.5222 6.15655 15.8239 6.08641 16.1282 6.02953C16.2811 6.00092 16.4343 5.97649 16.5883 5.95346C16.5969 5.95206 16.6933 5.9388 16.6185 5.94857C16.6569 5.94334 16.6958 5.93915 16.7346 5.93462C16.8123 5.92554 16.89 5.91752 16.9677 5.91019C18.3568 5.77969 19.6869 5.94125 21.0275 6.26472C21.6997 6.42698 22.3651 6.6182 23.0233 6.82757C23.3154 6.92039 23.606 7.01809 23.8945 7.12138C24.0297 7.16988 24.165 7.21978 24.2991 7.27108C24.3707 7.29829 24.4423 7.32621 24.5135 7.35412C24.6095 7.39216 24.6538 7.40961 24.7041 7.43054C25.2663 7.66503 25.817 7.92569 26.3457 8.22474C26.6072 8.37269 26.8637 8.52972 27.1126 8.69686C27.392 8.88459 27.5449 8.99765 27.7877 9.19725C28.7398 9.98063 29.4243 10.8544 29.9397 11.964C30.0059 12.1064 30.021 12.142 30.0846 12.3025C30.1433 12.4505 30.1983 12.5998 30.249 12.7502C30.3454 13.0349 30.4285 13.3235 30.499 13.6152C30.5724 13.9181 30.6321 14.2238 30.6796 14.5312C30.6839 14.5591 30.6882 14.5874 30.6921 14.6153C30.7062 14.7085 30.6839 14.5515 30.6965 14.645C30.7065 14.72 30.7159 14.7954 30.7245 14.8707C30.7429 15.0313 30.758 15.1918 30.7706 15.3526C30.817 15.9594 30.8216 16.569 30.7914 17.1769C30.7601 17.8033 30.6932 18.4216 30.5993 18.9914C30.3893 20.2682 30.0426 21.5328 29.5235 22.7251C29.0574 23.7964 28.3333 24.9845 27.5758 25.8562C27.182 26.3091 26.7525 26.7331 26.2918 27.1218C25.8472 27.4966 25.4213 27.8019 24.8836 28.1209C24.6286 28.2723 24.3671 28.4133 24.0999 28.5434C23.9747 28.6041 23.8485 28.6624 23.7208 28.7183C23.5553 28.7908 23.5373 28.7982 23.36 28.8652C22.7949 29.0784 22.2097 29.241 21.613 29.3457C20.2185 29.5903 18.7089 29.4821 17.3119 29.293C15.9085 29.1031 14.4773 28.9144 13.1094 28.5476C11.8246 28.2032 10.7143 27.6316 9.75679 26.7404C8.8378 25.8852 8.14361 24.9503 7.55373 23.8397C7.48287 23.706 7.41453 23.5713 7.34871 23.4352C7.31598 23.3672 7.28361 23.2988 7.25196 23.2304C7.23613 23.1962 7.22066 23.1617 7.2052 23.1275C7.19764 23.1104 7.18973 23.0929 7.18218 23.0758C7.19477 23.1058 7.19405 23.1041 7.18002 23.0713C7.06025 22.7942 6.95234 22.5119 6.85451 22.2272C6.6556 21.6479 6.5013 21.0544 6.39303 20.4528C6.36642 20.3049 6.34196 20.1565 6.32146 20.0075C6.33189 20.0836 6.31031 19.9158 6.30815 19.8952C6.29808 19.8111 6.28908 19.7273 6.28081 19.6433C6.2506 19.3348 6.23297 19.0253 6.22722 18.7158C6.22182 18.4157 6.2283 18.1152 6.24664 17.8151C6.25527 17.6745 6.26643 17.5342 6.28045 17.394C6.28801 17.3193 6.29592 17.2446 6.30491 17.1699C6.3175 17.0646 6.3229 17.0248 6.33081 16.9738C6.53511 15.6454 6.97716 14.3274 7.50445 13.1148C7.77458 12.4937 8.07239 11.8838 8.3774 11.278C8.50509 11.024 8.44862 10.712 8.18389 10.562C7.94686 10.4273 7.57423 10.4946 7.44583 10.7497Z" fill="black"/>
<path d="M11.6786 4.28745C10.3198 4.86481 8.93194 5.42875 7.72383 6.26812C7.0705 6.72224 6.48818 7.2366 5.99501 7.84736C5.48227 8.48292 5.08223 9.18801 4.69197 9.89518C3.10266 12.7768 1.72859 15.9033 2.13226 19.2257C2.48954 22.1659 3.80201 25.0455 5.79608 27.3178C6.70995 28.3589 7.80101 29.2719 9.02507 29.9715C10.4539 30.7885 12.0558 31.2509 13.6705 31.6055C15.4464 31.9956 17.2448 32.355 19.0613 32.5199C20.751 32.6731 22.4922 32.5929 24.0818 31.9839C26.8847 30.91 28.9099 28.6746 30.6275 26.3941C31.0921 25.7771 31.5624 25.1553 31.953 24.4926C32.3933 23.7455 32.6632 22.9429 32.868 22.1125C33.2818 20.4334 33.6844 18.7413 33.8612 17.0222C34.179 13.9323 33.6492 10.6299 31.6316 8.10558C30.6692 6.90127 29.4491 5.96274 27.9982 5.33614C27.192 4.98807 26.3556 4.70851 25.5219 4.42654C24.691 4.1456 23.8575 3.87017 23.014 3.62573C22.1733 3.38197 21.3217 3.16817 20.4579 3.01187C19.6368 2.86348 18.7979 2.74367 17.9601 2.76019C16.4321 2.79015 14.9091 3.14166 13.4701 3.61299C12.8625 3.81233 12.2653 4.03853 11.6786 4.28745C11.4105 4.40106 11.3471 4.7722 11.4837 4.99392C11.6453 5.25627 11.9584 5.29311 12.2272 5.17915C12.2928 5.15126 12.3581 5.12406 12.424 5.09686C12.4592 5.0824 12.6052 5.02387 12.5019 5.06484C12.6498 5.00597 12.7983 4.94882 12.9476 4.89305C13.2502 4.78046 13.5557 4.67442 13.8633 4.57527C14.5514 4.35389 15.2519 4.16523 15.9632 4.02407C16.1389 3.9893 16.3154 3.95728 16.4922 3.92836C16.5806 3.9139 16.669 3.90047 16.7578 3.88808C16.8973 3.86845 16.872 3.87189 16.9966 3.85778C17.3452 3.81922 17.6956 3.79512 18.0467 3.79167C18.8465 3.78341 19.5915 3.89634 20.3702 4.04541C22.0425 4.3656 23.6611 4.89064 25.2653 5.43357C26.0241 5.69041 26.8017 5.94415 27.5094 6.25401C27.8765 6.41479 28.2356 6.59244 28.5791 6.79454C28.8809 6.97219 29.1433 7.15156 29.3705 7.33025C29.647 7.54783 29.9086 7.78229 30.1546 8.03087C30.2713 8.14861 30.3844 8.2698 30.4942 8.39375C30.6199 8.53594 30.6902 8.62097 30.7786 8.73493C31.2026 9.28028 31.5628 9.86935 31.8584 10.486C31.9809 10.7411 32.0991 11.0272 32.2132 11.3498C32.3444 11.7206 32.4549 12.0983 32.5455 12.4797C32.7277 13.2478 32.8183 13.9698 32.8502 14.7641C32.9151 16.3722 32.6959 17.9363 32.3618 19.5035C32.1864 20.3267 31.9943 21.1478 31.7885 21.9645C31.5946 22.7329 31.3493 23.428 30.933 24.107C30.5485 24.7339 30.101 25.3275 29.656 25.9165C29.2176 26.497 28.8509 26.958 28.3791 27.494C27.9287 28.006 27.4536 28.4994 26.9452 28.96C26.6879 29.1931 26.4216 29.4179 26.1462 29.6314C26.0886 29.6761 26.0303 29.7202 25.9719 29.7639C25.8313 29.87 26.0114 29.736 25.9277 29.7963C25.8907 29.8228 25.8538 29.8493 25.8165 29.8755C25.6755 29.975 25.5324 30.071 25.3863 30.164C24.1837 30.9307 22.9114 31.4017 21.4623 31.5194C19.7433 31.6589 18.0275 31.4027 16.3476 31.0929C14.6909 30.7871 13.0031 30.4718 11.4152 29.9175C10.7456 29.6837 10.1005 29.388 9.47983 29.0251C8.8765 28.6725 8.43732 28.3585 7.93146 27.9313C5.86601 26.1868 4.46767 23.858 3.69838 21.3699C3.22332 19.8333 3.01533 18.2723 3.22803 16.6718C3.41682 15.2516 3.97377 13.7278 4.59957 12.4074C4.93729 11.6951 5.30762 10.9969 5.69063 10.3056C6.05517 9.64763 6.44905 8.94254 6.92447 8.38032C7.14623 8.11797 7.39082 7.87284 7.65172 7.64527C7.92712 7.40496 8.13583 7.24831 8.41195 7.06377C9.01275 6.66164 9.65775 6.32321 10.3158 6.01438C10.9445 5.71933 11.5866 5.45079 12.2269 5.17846C12.495 5.0645 12.5588 4.69405 12.4218 4.47198C12.2609 4.21033 11.9475 4.1728 11.6786 4.28745Z" fill="black"/>
<path d="M2.53546 9.60315C1.62064 11.2344 0.859353 12.9696 0.416768 14.7845C-0.0219346 16.5841 -0.122875 18.4305 0.171123 20.26C0.731236 23.7439 2.67593 26.9072 5.27991 29.2939C6.5579 30.4653 7.99471 31.4745 9.5194 32.3128C11.2336 33.2554 13.0647 33.9787 15.0065 34.3051C16.9865 34.6381 19.0509 34.7466 21.0506 34.5376C22.8555 34.3491 24.5902 33.8733 26.2091 33.0627C29.1579 31.5861 31.5643 29.1411 33.1673 26.3153C34.9839 23.1128 35.8306 19.4463 35.9859 15.8033C36.0279 14.8157 36.0046 13.8262 35.8281 12.8507C35.6746 12.003 35.3947 11.1876 35.039 10.402C34.3327 8.84143 33.2778 7.44309 32.1004 6.19515C31.4849 5.54293 30.8337 4.91845 30.1179 4.37228C29.3383 3.77725 28.4951 3.31564 27.5856 2.94101C26.7213 2.58476 25.8269 2.30959 24.9319 2.03928C23.9856 1.75372 23.0391 1.46712 22.0777 1.23389C20.1923 0.776444 18.2589 0.576136 16.3226 0.783028C14.4376 0.984722 12.6069 1.50698 10.9132 2.34702C9.68846 2.95453 8.52553 3.69269 7.42789 4.49877C6.1326 5.45006 4.90191 6.50497 3.86603 7.72934C3.37016 8.31571 2.9131 8.93604 2.53546 9.60315C2.39675 9.84851 2.4751 10.1705 2.72534 10.3143C2.96887 10.4539 3.31016 10.3739 3.44957 10.1278C3.6331 9.80346 3.83462 9.48983 4.05168 9.18625C4.15262 9.0452 4.25674 8.90554 4.36403 8.769C4.30509 8.84385 4.41274 8.7087 4.41238 8.70939C4.43462 8.68201 4.45685 8.65464 4.47909 8.6276C4.5465 8.54547 4.61462 8.46438 4.68379 8.38363C5.18779 7.79657 5.73837 7.24867 6.31684 6.73196C7.42295 5.74324 8.53047 4.93785 9.82363 4.14841C11.1186 3.35826 12.4336 2.72061 13.8881 2.30544C14.7319 2.06458 15.6199 1.89131 16.4472 1.80987C17.3395 1.72219 18.2394 1.71214 19.1334 1.78353C21.0026 1.93254 22.8471 2.49708 24.6506 3.04186C26.35 3.55511 28.0504 4.09573 29.4438 5.1645C30.1324 5.69265 30.7589 6.30189 31.3518 6.93053C31.9296 7.54289 32.4223 8.12961 32.8906 8.7936C33.8464 10.1483 34.5343 11.5587 34.8173 13.1834C34.9715 14.0688 34.9648 15.0219 34.9214 15.9364C34.9006 16.3741 34.8695 16.8111 34.8275 17.2474C34.7866 17.6747 34.7365 18.0944 34.6793 18.4763C34.421 20.208 33.9837 21.9172 33.3332 23.5478C32.7343 25.0483 31.8918 26.5395 30.8785 27.8592C30.8739 27.8651 30.8182 27.9365 30.8609 27.8824C30.8273 27.9251 30.7931 27.9677 30.7589 28.01C30.7021 28.0807 30.6445 28.1507 30.5863 28.2203C30.4585 28.3739 30.3279 28.5249 30.1945 28.6736C29.9281 28.971 29.6507 29.2593 29.3634 29.5372C29.0891 29.802 28.8057 30.0578 28.5131 30.3028C28.193 30.5713 27.9668 30.7467 27.6516 30.9716C26.3768 31.8813 25.0353 32.5613 23.5766 32.9962C21.7724 33.534 19.9071 33.656 18.0224 33.5732C16.1105 33.489 14.2371 33.2152 12.4386 32.5349C10.8397 31.9302 9.27764 31.0479 7.87224 30.0501C5.19238 28.1476 2.92475 25.495 1.81758 22.4045C1.23453 20.7771 0.974763 19.168 1.07147 17.4515C1.12017 16.5869 1.25041 15.7978 1.46676 14.9404C1.68452 14.0771 1.97499 13.2323 2.31911 12.4099C2.63146 11.6638 3.03592 10.8636 3.44886 10.1275C3.58686 9.88178 3.50992 9.56052 3.25898 9.41636C3.01722 9.27739 2.67381 9.3564 2.53546 9.60315Z" fill="black"/>
</g>
<defs>
<clipPath id="clip0_49_50">
<rect width="36" height="36" fill="white"/>
</clipPath>
</defs>
</svg>
