<svg width="36" height="36" viewBox="0 0 36 36" fill="none" xmlns="http://www.w3.org/2000/svg">
<g clip-path="url(#clip0_260_270)">
<path fill-rule="evenodd" clip-rule="evenodd" d="M17.242 12.3457C18.1858 12.0428 19.2408 11.9214 20.2195 12.0948C21.297 12.2855 22.2664 13.085 23.0232 13.8457C23.4228 14.2474 23.8796 14.6929 24.1463 15.2002C24.4418 15.7629 24.5406 16.4436 24.6277 17.0684C24.8081 18.3599 24.6493 19.8152 24.0603 20.9893C23.7937 21.5197 23.4133 21.9829 22.947 22.3418C22.4626 22.7145 21.875 22.914 21.2839 23.0283C19.9967 23.2773 18.6383 23.4456 17.3357 23.2324C16.1578 23.0398 15.1118 22.4437 14.3845 21.4776C12.9724 19.6015 13.1803 17.0942 14.1619 15.0733L14.3679 14.6758C14.5083 14.4305 14.6778 14.2013 14.8601 13.9864C15.4857 13.25 16.3263 12.6396 17.242 12.3457ZM19.3582 13.1026C18.6569 13.1015 17.9328 13.2253 17.2791 13.4785C16.6415 13.7358 15.7146 14.4775 15.2888 15.2237C15.1595 15.4699 15.0295 15.7149 14.9197 15.9707C14.6124 16.6853 14.4318 17.4666 14.4275 18.2461C14.4259 18.4719 14.436 18.7418 14.4695 18.9434C14.5524 19.4394 14.6776 19.8547 14.8826 20.2569C15.0917 20.6651 15.3457 21.0124 15.6804 21.3223C16.0139 21.6299 16.4179 21.8539 16.8474 21.9971C17.3785 22.174 17.82 22.232 18.3621 22.2432C18.9538 22.2551 19.5541 22.1978 20.1345 22.1182C20.6742 22.0444 21.2392 21.9709 21.7586 21.7783C22.407 21.5379 22.8469 21.0332 23.1521 20.416C23.5064 19.6971 23.6165 18.858 23.6296 18.0664C23.6392 17.4858 23.547 16.9692 23.4265 16.3994C23.3707 16.1362 23.3126 15.8986 23.1951 15.6924C23.0714 15.4756 22.9221 15.3198 22.739 15.1143C22.3949 14.7282 22.0307 14.3583 21.6326 14.0293C21.3581 13.8022 21.0558 13.6025 20.7429 13.4326C20.5512 13.3293 20.4728 13.2898 20.3377 13.2432C19.9474 13.1098 19.7795 13.1041 19.3582 13.1026Z" fill="black"/>
<path fill-rule="evenodd" clip-rule="evenodd" d="M16.9745 9.22894C17.7312 8.99992 18.5433 8.88362 19.329 8.94671C20.1444 9.01204 20.9226 9.27003 21.664 9.63226C23.1201 10.3434 24.4728 11.5213 25.331 12.8989C26.2401 14.3582 26.7095 16.1552 26.745 17.9037C26.7788 19.5679 26.4396 21.34 25.4433 22.6547C24.9463 23.3106 24.2612 23.7643 23.5517 24.1078C22.8048 24.469 22.0257 24.816 21.2372 25.0561C19.5739 25.5622 17.7809 25.4168 16.0995 25.0942C15.2813 24.9374 14.5265 24.6347 13.869 24.0805C13.2933 23.5949 12.8315 22.9536 12.4686 22.2739C11.6764 20.7895 11.2792 19.0515 11.3212 17.3422C11.3539 15.9904 11.6902 14.7001 12.162 13.4418C12.3136 13.0366 12.4656 12.6258 12.6718 12.2485C12.8803 11.8677 13.1429 11.5345 13.4677 11.2641C13.7588 11.0218 14.0791 10.835 14.3935 10.6313C14.8576 10.3304 15.309 9.99297 15.7919 9.72503C16.1711 9.52481 16.5633 9.35329 16.9745 9.22894ZM20.3769 10.2748C19.6638 10.0432 19.0105 9.98364 18.2528 10.0717C17.7035 10.1363 17.1564 10.2917 16.6474 10.5063C16.5626 10.5433 16.5042 10.5719 16.3388 10.6596C15.8839 10.9136 15.4573 11.2217 15.0204 11.5092C14.7497 11.6872 14.4678 11.8468 14.206 12.0395C13.6579 12.4428 13.3932 13.0845 13.161 13.7016C12.8039 14.6504 12.4854 15.633 12.3866 16.6469C12.3293 17.2337 12.3276 17.8284 12.3788 18.4164C12.4441 19.1624 12.6143 19.9029 12.8622 20.6088C13.0851 21.2423 13.3926 21.8407 13.7655 22.3979C14.096 22.8798 14.6439 23.4321 15.2558 23.7094C15.8814 23.9935 16.6823 24.1025 17.3602 24.184C18.1544 24.2794 18.9579 24.318 19.7548 24.2377C20.4948 24.1628 21.2517 23.9201 21.9706 23.6205C22.9242 23.2233 23.9365 22.8255 24.6132 22.0092C25.7254 20.6685 25.875 18.5114 25.6464 16.892C25.4272 15.3394 24.8701 13.8331 23.8837 12.6996C22.928 11.6018 21.6968 10.7039 20.3769 10.2748Z" fill="black"/>
<path fill-rule="evenodd" clip-rule="evenodd" d="M16.4016 7.05398C17.4472 6.81547 18.5827 6.84585 19.6448 6.95632C20.6337 7.0591 21.6121 7.25406 22.554 7.56765C24.3971 8.18153 26.1284 9.21293 27.3762 10.6829C28.1063 11.5429 28.6775 12.529 29.1302 13.5511C29.6186 14.6538 29.8789 15.8048 29.8255 17.01C29.7738 18.1756 29.4882 19.3222 29.097 20.4212C28.8957 20.9866 28.6653 21.5414 28.4251 22.0921C28.2072 22.5916 27.9798 23.0896 27.6966 23.5579C27.1304 24.4947 26.329 25.2283 25.3655 25.7737C24.4385 26.2984 23.4164 26.665 22.4085 27.013C21.8167 27.2175 21.2225 27.3606 20.595 27.4104C20.022 27.456 19.4425 27.4455 18.8684 27.4378C17.8052 27.423 16.7422 27.3566 15.6927 27.1858C13.6367 26.8508 11.6536 25.9937 10.3343 24.3772C8.88183 22.5974 8.30348 20.3627 8.23953 18.1233C8.22293 17.5413 8.23841 16.9582 8.27957 16.3772C8.32183 15.7806 8.39382 15.1751 8.56863 14.5999C8.73988 14.0369 9.04302 13.5199 9.24246 12.9798C9.443 12.4357 9.53738 11.8242 9.81277 11.3108C9.97787 10.8374 10.3274 10.4086 10.6575 10.0403C11.3291 9.29083 12.2024 8.66647 13.1702 8.33328C14.2434 7.96355 15.2634 7.31389 16.4016 7.05398ZM18.2864 7.93679C17.7622 7.93539 17.2386 7.95121 16.7542 8.05398C16.2128 8.16905 15.7386 8.38098 15.2503 8.60085C14.6139 8.88723 12.6772 9.68242 13.3147 9.39871C12.2689 9.83608 11.2827 10.691 10.7991 11.7249C10.6065 12.1961 10.4893 12.6909 10.3206 13.1702C10.1327 13.7044 9.84426 14.1991 9.66433 14.7249C9.4859 15.2467 9.41158 15.7507 9.37039 16.2796C9.28694 17.3518 9.28541 18.4932 9.43387 19.5286C9.54691 20.3186 9.74742 21.1001 10.0501 21.8411C10.3521 22.5777 10.7702 23.2711 11.2835 23.8509C11.5213 24.1206 11.7827 24.3715 12.0628 24.5999C12.4137 24.8861 12.8058 25.1254 13.2093 25.3294C15.3177 26.3969 18.062 26.4876 20.3528 26.3733C21.3952 26.3218 22.4125 25.9162 23.3909 25.5335C24.2471 25.1983 25.1101 24.7919 25.805 24.1819C26.5752 23.5057 27.0265 22.6139 27.4387 21.6761C27.8625 20.7118 28.2617 19.6607 28.5081 18.6126C28.74 17.6262 28.8394 16.5511 28.6555 15.5686C28.2616 13.4611 26.9001 11.3632 25.1848 10.0852C24.3109 9.43566 23.3233 8.93641 22.2913 8.59109C21.4405 8.30528 20.4807 8.09573 19.6721 8.01199C19.2119 7.96323 18.7492 7.9382 18.2864 7.93679Z" fill="black"/>
<path fill-rule="evenodd" clip-rule="evenodd" d="M14.8814 5.24508C16.1765 4.87809 17.5508 4.74261 18.8951 4.8525C20.3934 4.97532 21.8568 5.35804 23.2818 5.80953C25.7686 6.59778 28.2398 7.74966 29.8677 9.8066C31.4989 11.8678 31.9908 14.5769 31.8736 17.1211C31.7491 19.8233 31.0335 22.5651 29.5933 24.8964C28.232 27.1003 26.1954 28.8902 23.7252 29.8457C22.4055 30.3558 20.9883 30.5552 19.5718 30.5273C18.0051 30.4962 16.4467 30.2329 14.9048 29.9824C13.4891 29.7521 12.0635 29.454 10.7916 28.7822C9.54206 28.1223 8.52296 27.114 7.68023 26.0156C6.09413 23.9475 5.2148 21.3734 5.14996 18.8007C5.08701 16.2957 5.91786 13.9467 6.97906 11.7041L7.44586 10.75C7.99562 9.67916 8.96205 8.86321 9.87164 8.10543C10.3457 7.71077 10.8127 7.31047 11.317 6.95211C12.3892 6.18968 13.6049 5.60693 14.8814 5.24508ZM21.0269 6.26461C19.6118 5.92317 18.2013 5.76336 16.7349 5.93453C15.7689 6.04734 14.5042 6.40537 13.5396 6.86715C12.9697 7.13995 12.4243 7.4605 11.9097 7.82223C11.5066 8.1055 11.0875 8.46833 10.6714 8.81441C9.81753 9.52477 8.89374 10.2727 8.3775 11.2783L7.9273 12.1904C7.78094 12.4963 7.63953 12.8046 7.50445 13.1152C6.91393 14.4732 6.42959 15.914 6.27984 17.3945C6.19679 18.2254 6.20889 19.0665 6.30816 19.8955C6.44951 21.2273 6.91298 22.6321 7.55328 23.8398C8.1431 24.9504 8.83756 25.885 9.75641 26.7402C10.7138 27.6313 11.8243 28.2034 13.1089 28.5478C14.4768 28.9146 15.9086 29.1031 17.3121 29.2929C18.709 29.482 20.2185 29.5903 21.6129 29.3457C22.2096 29.241 22.7949 29.0784 23.3599 28.8652C24.4248 28.4629 25.4237 27.8536 26.2916 27.122C26.7523 26.7333 27.1819 26.3093 27.5757 25.8564C28.3331 24.9849 29.0569 23.7967 29.523 22.7255C30.042 21.5332 30.3891 20.268 30.5992 18.9912C30.8327 17.5737 30.8815 15.839 30.6793 14.5312C30.5438 13.6541 30.3154 12.7713 29.94 11.9638C29.4246 10.8542 28.7397 9.98059 27.7877 9.19723C27.3389 8.82833 26.8505 8.51042 26.3453 8.22457C24.7054 7.29714 22.8475 6.70404 21.0269 6.26461Z" fill="black"/>
<path fill-rule="evenodd" clip-rule="evenodd" d="M17.96 2.76031C18.7978 2.74379 19.637 2.86388 20.4581 3.01227C22.1884 3.32535 23.8629 3.86553 25.5216 4.42633C26.3553 4.70828 27.1919 4.98844 27.9981 5.33649C29.449 5.96309 30.6695 6.9017 31.6319 8.10602C33.6493 10.6302 34.1791 13.9323 33.8614 17.022C33.6846 18.7411 33.2821 20.4338 32.8682 22.1129C32.6635 22.9432 32.3934 23.7457 31.9532 24.4927C31.5627 25.1554 31.0925 25.7772 30.628 26.3941C28.9105 28.6746 26.8849 30.9101 24.0821 31.9839C20.7857 33.2469 16.9845 32.3338 13.671 31.606C12.0565 31.2514 10.4542 30.7891 9.02547 29.9722C7.80142 29.2726 6.70985 28.3591 5.79598 27.3179C3.80203 25.0457 2.48922 22.1662 2.13192 19.2261C1.72825 15.9038 3.10316 12.7768 4.69247 9.89508C5.08265 9.18806 5.48256 8.48265 5.9952 7.84723C6.48832 7.23659 7.07049 6.72217 7.72372 6.26813C8.94096 5.42241 10.3224 4.866 11.6788 4.28766C13.6599 3.44708 15.7966 2.80276 17.96 2.76031ZM18.047 3.79156C15.2948 3.81855 12.7325 4.87991 10.3155 6.01422C9.05844 6.60418 7.8316 7.3079 6.92489 8.38043C6.44947 8.94265 6.05505 9.64828 5.69051 10.3062C4.5908 12.2912 3.53097 14.3978 3.2286 16.6724C3.01599 18.2727 3.22341 19.8334 3.69833 21.3697C4.65866 24.4758 6.64147 27.3664 9.47958 29.025C10.1002 29.3878 10.7456 29.6838 11.4151 29.9175C13.003 30.4718 14.691 30.7876 16.3477 31.0933C18.0275 31.4031 19.7431 31.6594 21.462 31.5201C23.1336 31.3842 24.9784 30.5389 26.1466 29.6314C27.4989 28.5832 28.6289 27.2767 29.6563 25.9166C30.1013 25.3276 30.5483 24.7338 30.9327 24.107C31.3491 23.4281 31.5943 22.7329 31.7882 21.9644C32.3807 19.6134 32.9491 17.2045 32.8507 14.7642C32.792 13.3028 32.4951 11.812 31.8585 10.4859C31.5628 9.86939 31.2023 9.28018 30.7784 8.73492C30.3723 8.21152 29.8899 7.73963 29.3702 7.33063C28.1703 6.38701 26.6913 5.91669 25.2657 5.43414C23.6615 4.8912 22.0425 4.36566 20.3702 4.04547C19.5916 3.89641 18.8466 3.78331 18.047 3.79156Z" fill="black"/>
<path fill-rule="evenodd" clip-rule="evenodd" d="M16.3232 0.783055C18.2592 0.576246 20.1928 0.776814 22.0781 1.23423C23.0393 1.46742 23.9855 1.75439 24.9316 2.03989C25.8266 2.3102 26.7215 2.585 27.5859 2.94126C28.4954 3.31587 29.3385 3.77789 30.1181 4.3729C30.8337 4.91899 31.4851 5.54306 32.1005 6.19516C33.2779 7.44308 34.3328 8.8417 35.039 10.4022C35.3948 11.1878 35.6745 12.0037 35.8281 12.8514C36.0045 13.8268 36.0283 14.816 35.9863 15.8036C35.831 19.4463 34.9843 23.1129 33.1679 26.3153C31.5649 29.1411 29.1577 31.5867 26.2089 33.0633C24.5901 33.8738 22.8555 34.3494 21.0507 34.5379C19.051 34.7469 16.9867 34.6385 15.0068 34.3055C13.0649 33.9791 11.2337 33.2559 9.51947 32.3133C7.99478 31.475 6.5582 30.4651 5.28021 29.2938C2.67634 26.9071 0.730987 23.7444 0.170838 20.2606C-0.123149 18.4312 -0.0217295 16.5846 0.416932 14.785C0.859505 12.9702 1.62031 11.2346 2.5351 9.60337C2.91274 8.93625 3.37027 8.31571 3.86615 7.72934C4.90196 6.50509 6.13249 5.45009 7.42767 4.49888C8.52524 3.69285 9.68842 2.95499 10.913 2.34751C12.6068 1.50746 14.4381 0.984749 16.3232 0.783055ZM19.1337 1.78403C18.2397 1.71264 17.3394 1.72272 16.4472 1.8104C15.6201 1.89183 14.7323 2.06475 13.8886 2.30552C12.4343 2.72063 11.1189 3.35829 9.82416 4.14829C8.53108 4.93769 7.42336 5.74365 6.31732 6.73227C5.48479 7.47593 4.64624 8.35562 4.0517 9.18638C3.83475 9.48981 3.63359 9.80358 3.45013 10.1278C3.44913 10.1296 3.44628 10.1309 3.44525 10.1327C3.03338 10.8672 2.63087 11.6657 2.31928 12.41C1.97521 13.2323 1.68449 14.0772 1.46674 14.9403C1.25038 15.7977 1.11993 16.5873 1.07123 17.452C0.97455 19.1684 1.23429 20.7778 1.81732 22.4051C2.9245 25.4956 5.19226 28.1481 7.87201 30.0506C9.27733 31.0483 10.8397 31.9303 12.4384 32.535C14.237 33.2153 16.1106 33.4889 18.0224 33.5731C19.9071 33.6559 21.7729 33.5348 23.5771 32.9969C25.3849 32.4579 27.07 31.5148 28.5136 30.3036C28.8061 30.0586 29.0891 29.8026 29.3632 29.5379C29.8595 29.0578 30.3271 28.5476 30.7587 28.0106C31.7432 26.7948 32.716 25.0933 33.3329 23.5477C33.9834 21.9172 34.4213 20.2081 34.6796 18.4764C34.7952 17.7046 34.8806 16.8026 34.9218 15.9364C34.9652 15.0219 34.9715 14.0688 34.8173 13.1834C34.5342 11.5589 33.8463 10.1484 32.8906 8.7938C32.4222 8.12986 31.9292 7.54283 31.3515 6.93052C30.7587 6.30208 30.1326 5.69289 29.4443 5.16489C28.0509 4.09612 26.3497 3.55509 24.6503 3.04184C22.847 2.49712 21.0027 1.93306 19.1337 1.78403Z" fill="black"/>
</g>
<defs>
<clipPath id="clip0_260_270">
<rect width="36" height="36" fill="white"/>
</clipPath>
</defs>
</svg>
